HIERARCHY
ROOT Hips
{
	OFFSET	0.00	0.00	0.00
	CHANNELS 6 Xposition Yposition Zposition Zrotation Xrotation Yrotation
	JOINT LeftUpLeg
	{
		OFFSET	 0.126116	-0.014019	-0.065224
		CHANNELS 3 Zrotation Xrotation Yrotation
		JOINT LeftLeg
		{
			OFFSET	 0.000000	 0.000000	 0.569914
			CHANNELS 3 Zrotation Xrotation Yrotation
			JOINT LeftFoot
			{
				OFFSET	 0.000000	 0.000000	 0.544423
				CHANNELS 3 Zrotation Xrotation Yrotation
				JOINT LeftToeBase
				{
					OFFSET	 0.000000	 0.000000	 0.207117
					CHANNELS 3 Zrotation Xrotation Yrotation
					End Site
					{
						OFFSET	 0.000000	 0.000000	 0.207117
					}
				}
			}
		}
	}
	JOINT RightUpLeg
	{
		OFFSET	-0.124023	-0.008373	-0.065224
		CHANNELS 3 Zrotation Xrotation Yrotation
		JOINT RightLeg
		{
			OFFSET	 0.000000	 0.000000	 0.570047
			CHANNELS 3 Zrotation Xrotation Yrotation
			JOINT RightFoot
			{
				OFFSET	 0.000000	 0.000000	 0.544354
				CHANNELS 3 Zrotation Xrotation Yrotation
				JOINT RightToeBase
				{
					OFFSET	 0.000000	 0.000000	 0.207540
					CHANNELS 3 Zrotation Xrotation Yrotation
					End Site
					{
						OFFSET	 0.000000	 0.000000	 0.207540
					}
				}
			}
		}
	}
	JOINT Spine
	{
		OFFSET	 0.000184	-0.007763	 0.117403
		CHANNELS 3 Zrotation Xrotation Yrotation
		JOINT Spine1
		{
			OFFSET	 0.000000	 0.000000	 0.137269
			CHANNELS 3 Zrotation Xrotation Yrotation
			JOINT Spine2
			{
				OFFSET	 0.000000	 0.000000	 0.156879
				CHANNELS 3 Zrotation Xrotation Yrotation
				JOINT LeftShoulder
				{
					OFFSET	 0.080501	-0.002496	 0.160144
					CHANNELS 3 Zrotation Xrotation Yrotation
					JOINT LeftArm
					{
						OFFSET	 0.000000	 0.000000	 0.164363
						CHANNELS 3 Zrotation Xrotation Yrotation
						JOINT LeftForeArm
						{
							OFFSET	 0.000000	 0.000000	 0.364576
							CHANNELS 3 Zrotation Xrotation Yrotation
							JOINT LeftHand
							{
								OFFSET	 0.000000	 0.000000	 0.360812
								CHANNELS 3 Zrotation Xrotation Yrotation
								JOINT LeftHandIndex1
								{
									OFFSET	 0.000000	 0.000000	 0.086006
									CHANNELS 3 Zrotation Xrotation Yrotation
									JOINT LeftHandIndex2
									{
										OFFSET	 0.000000	 0.000000	 0.047236
										CHANNELS 3 Zrotation Xrotation Yrotation
										JOINT LeftHandIndex3
										{
											OFFSET	-0.004284	-0.000551	 0.038166
											CHANNELS 3 Zrotation Xrotation Yrotation
											End Site
											{
												OFFSET	-0.004284	-0.000551	 0.038166
											}
										}
									}
								}
							}
						}
					}
				}
				JOINT Neck
				{
					OFFSET	 0.000000	 0.000000	 0.176489
					CHANNELS 3 Zrotation Xrotation Yrotation
					JOINT Head
					{
						OFFSET	 0.000000	-0.001747	 0.077940
						CHANNELS 3 Zrotation Xrotation Yrotation
						End Site
						{
							OFFSET	 0.000000	-0.001747	 0.077940
						}
					}
				}
				JOINT RightShoulder
				{
					OFFSET	-0.080363	 0.000306	 0.159706
					CHANNELS 3 Zrotation Xrotation Yrotation
					JOINT RightArm
					{
						OFFSET	 0.000000	 0.000000	 0.164196
						CHANNELS 3 Zrotation Xrotation Yrotation
						JOINT RightForeArm
						{
							OFFSET	 0.000000	 0.000000	 0.365611
							CHANNELS 3 Zrotation Xrotation Yrotation
							JOINT RightHand
							{
								OFFSET	 0.000000	 0.000000	 0.360648
								CHANNELS 3 Zrotation Xrotation Yrotation
								JOINT RightHandIndex1
								{
									OFFSET	 0.000000	 0.000000	 0.069977
									CHANNELS 3 Zrotation Xrotation Yrotation
									JOINT RightHandIndex2
									{
										OFFSET	 0.000000	 0.000000	 0.052305
										CHANNELS 3 Zrotation Xrotation Yrotation
										JOINT RightHandIndex3
										{
											OFFSET	 0.009002	-0.000782	 0.042196
											CHANNELS 3 Zrotation Xrotation Yrotation
											End Site
											{
												OFFSET	 0.009002	-0.000782	 0.042196
											}
										}
									}
								}
							}
						}
					}
				}
			}
		}
	}
}
MOTION
Frames:    8
Frame Time: 0.03333334
 0.010800	 0.000448	 1.200091	 5.676385	-0.519749	-2.888285	 4.801735	-9.215632	-173.726900	 1.249813	-37.993600	 0.552255	 62.448030	 82.720690	-66.713500	-2.368469	 31.768410	-0.073414	-13.614480	-34.331170	-176.691400	 10.477760	-44.403720	 7.913365	 12.268310	 76.002390	-8.658470	 2.359019	 32.993930	 0.103074	-12.511930	 8.238091	 1.746416	-1.713840	 2.079797	-0.752147	 1.485784	-2.329274	 0.872483	-94.116440	 58.982050	 175.006400	 8.837246	 28.005220	-45.392780	-5.728661	 0.190261	-3.228321	-6.560542	-30.282700	-11.551000	-4.864667	 19.383650	-2.800178	-3.869578	 21.625400	 2.190611	-4.804214	 5.593146	 0.144180	-0.037814	-5.105810	 0.232969	-0.499848	 2.076495	 2.564372	 89.712720	 61.764390	 179.833800	-21.030850	 56.796740	 8.806815	 1.908597	-1.504809	 15.667220	-1.129260	-15.581110	 1.370756	 6.276391	 23.558070	-0.551532	 2.041293	 43.409550	-7.131477	 0.797827	 23.072200	 3.432969
 0.009155	-0.035254	 1.198087	 6.107919	 0.008656	-3.011420	 4.290302	-7.442189	-174.017700	 1.421906	-36.943200	 0.642656	 68.137620	 83.424520	-72.497820	-2.367208	 31.974640	-0.078094	-15.091690	-35.624240	-177.476400	 10.168530	-37.879360	 6.759845	 10.655530	 74.974050	-7.714953	 2.359788	 32.879470	 0.100424	-15.356160	 7.846071	 1.700632	-1.824127	 2.265149	-0.668374	 1.398194	-2.516617	 0.854089	-94.247100	 58.991750	 174.726500	 7.596013	 26.145030	-45.994690	-7.699401	 0.394205	-4.299387	-8.799797	-33.185230	-13.227400	-4.857130	 19.562430	-2.809167	-3.860099	 21.746030	 2.180979	-4.800329	 5.638971	 0.141497	-0.016769	-5.137705	 0.273821	-0.523959	 2.041471	 2.522161	 89.644030	 61.862320	 179.668300	-20.660590	 57.877600	 7.495368	 2.816775	-0.996778	 15.865830	 0.034925	-18.092600	 1.617094	 6.259584	 22.478440	-0.578022	 2.151688	 42.454580	-7.228872	 1.036306	 21.993970	 3.318069
 0.004752	-0.114811	 1.189446	 6.514632	 0.879827	-3.535259	 3.689833	-2.838929	-174.496400	 1.616313	-34.166400	 0.709711	 81.325330	 84.772800	-85.734050	-2.360277	 33.043300	-0.102669	-15.723180	-37.186640	-178.449800	 9.509381	-24.280900	 4.259942	 14.602290	 75.088660	-13.005620	 2.354798	 33.599820	 0.117229	-21.469740	 6.937635	 1.910706	-2.015336	 3.052586	-0.509051	 1.297193	-2.935587	 0.803933	-94.451680	 58.967350	 174.294300	 5.123165	 23.072320	-47.210860	-12.528520	 1.098858	-6.729041	-14.655530	-39.110970	-16.668500	-4.830049	 20.132820	-2.822216	-3.830059	 22.125740	 2.150460	-4.776045	 5.924362	 0.124699	 0.016973	-5.257822	 0.337709	-0.568533	 1.942046	 2.484816	 89.468830	 62.030430	 179.242500	-18.992090	 59.546170	 5.473138	 4.385373	 0.375995	 14.214290	 2.133384	-23.522070	 1.704294	 6.205414	 19.529620	-0.689928	 2.475057	 39.450580	-7.510728	 1.676473	 19.004760	 3.028678
-0.001565	-0.188990	 1.174806	 6.871707	 1.046330	-3.865369	 3.042678	 2.219032	-175.263900	 1.899973	-31.601700	 0.810920	 80.683090	 85.897780	-85.115530	-2.335124	 36.296960	-0.180471	-15.227280	-42.226060	-179.032800	 10.199310	-21.973710	 4.143484	 23.823620	 76.811630	-23.583720	 2.335225	 36.088260	 0.177016	-27.429050	 6.812501	 2.083172	-2.133261	 3.456466	-0.408616	 1.303462	-3.365549	 0.776547	-94.544410	 58.921880	 174.104400	 3.097759	 21.813430	-48.021630	-16.357710	 2.087523	-9.035139	-21.673760	-43.504540	-22.262200	-4.845576	 20.504440	-3.022412	-3.789742	 22.629300	 2.109523	-4.724557	 6.525791	 0.088878	 0.108094	-5.398870	 0.349772	-0.459122	 1.892731	 2.192756	 89.358220	 61.953900	 178.978200	-16.464150	 60.437660	 2.184629	 5.989253	 1.693744	 14.272320	 4.524349	-28.579410	 2.021557	 6.164567	 16.253500	-0.680556	 2.867443	 35.342960	-7.844657	 2.342985	 15.751430	 2.758716
-0.010812	-0.272920	 1.162173	 7.226329	 0.818945	-3.163471	 2.387433	 8.715796	-177.288800	 2.044544	-26.762420	 0.761989	 22.753230	 83.629940	-26.613640	-2.231895	 44.918860	-0.416355	-14.105660	-43.552510	 179.968700	 8.275919	-21.178840	 3.287456	 9.082551	 69.909150	-6.272551	 2.339737	 35.554720	 0.163954	-33.135260	 6.814873	 1.481951	-2.301796	 3.595766	-0.596954	 1.308086	-3.424056	 0.770763	-94.487940	 59.283690	 174.164800	 1.609243	 21.663400	-47.968130	-19.888250	 3.298301	-11.132770	-28.947630	-45.690250	-28.385920	-4.885098	 20.656220	-3.298712	-3.759542	 23.002270	 2.078859	-4.652879	 7.354406	 0.038549	 0.218634	-5.478732	 0.260815	-0.198015	 2.020984	 2.128272	 89.354920	 61.546380	 178.985200	-14.362430	 60.230890	 1.070645	 8.089073	 3.190368	 11.212720	 6.921595	-32.262970	 3.114637	 6.226278	 13.066550	-0.207575	 3.073349	 32.958560	-8.015653	 2.940756	 12.720230	 2.545736
-0.020861	-0.367229	 1.153674	 8.317384	-0.071578	-1.854094	 2.880437	 14.228210	 179.199500	-0.110203	-26.398040	-0.205821	 1.961930	 75.338460	-2.045490	-1.962581	 56.369580	-0.849777	-10.759000	-40.478510	 179.895900	 6.217287	-23.190950	 2.758338	-5.316919	 61.187210	 13.944670	 2.334336	 36.189610	 0.179514	-38.722880	 7.165465	 0.274549	-2.890358	 3.442255	-0.948734	 1.207210	-3.029844	 0.726155	-94.396550	 59.081690	 174.393700	 1.023410	 21.277850	-46.932870	-23.514240	 4.679682	-13.012400	-32.413540	-44.345050	-30.247570	-4.896101	 20.907210	-3.446552	-3.735421	 23.297530	 2.054367	-4.571292	 8.285412	-0.019371	 0.362000	-5.417604	 0.284365	 0.052812	 2.439664	 2.437643	 89.225490	 61.413500	 178.684300	-12.749720	 60.040920	-1.192721	 10.505860	 4.566095	 13.095450	 9.905640	-33.408850	 5.596873	 6.336660	 10.024080	 0.355134	 3.296498	 30.177970	-8.197092	 3.413692	 10.253680	 2.397922
-0.032717	-0.465949	 1.151298	 10.039300	-0.839794	-0.333280	 4.131802	 14.757980	 174.731700	 1.239772	-32.922410	 0.482147	-3.325881	 57.822200	 7.681040	-1.080234	 70.466700	-1.921351	-13.484700	-37.244990	 177.076400	 7.652685	-27.369850	 3.888671	-7.055732	 54.830990	 16.445580	 2.352355	 33.938360	 0.125194	-42.700330	 7.289329	-0.720330	-3.506256	 3.513094	-1.834914	 0.948975	-2.673011	 0.941500	-94.222320	 59.430600	 174.713200	 1.861615	 21.765120	-45.886710	-25.652360	 6.109102	-14.617680	-32.456790	-39.701660	-29.866990	-4.812992	 21.287760	-3.080738	-3.669593	 24.091370	 1.987569	-4.505054	 9.031643	-0.066872	 0.391597	-5.342211	 0.230514	 0.104520	 2.987796	 2.416994	 89.022210	 60.768810	 178.243000	-11.556750	 59.106930	-2.192304	 14.399250	 6.013956	 14.703440	 14.574950	-31.660230	 8.776832	 6.374541	 8.655292	 0.524149	 3.390053	 28.947650	-8.271817	 3.651628	 8.992254	 2.330739
-0.045679	-0.563124	 1.155752	 9.240839	-1.459363	 1.185372	 13.197760	 9.672871	 166.729800	 0.611625	-45.238130	 0.183831	 0.494359	 43.971390	 12.757290	-2.262148	 42.866410	-0.355337	-15.233780	-36.183580	 174.402100	 6.387757	-35.996280	 4.214047	-4.247559	 58.204960	 15.041450	 2.372041	 30.896920	 0.055232	-42.871300	 7.687920	-1.709182	-3.428066	 2.421529	-2.025016	 1.005259	-1.959215	 0.702030	-94.060420	 59.799390	 175.008700	 3.233459	 23.339160	-44.138110	-26.342150	 7.476785	-15.925400	-30.815970	-34.572310	-27.440900	-4.745870	 21.725160	-2.815889	-3.592411	 25.000830	 1.909275	-4.439572	 9.760994	-0.114247	 0.293288	-5.398146	 0.175978	 0.004332	 3.195558	 2.517480	 89.064260	 60.265140	 178.367600	-11.840770	 58.584950	-2.009647	 18.267430	 7.411710	 16.012500	 18.660880	-28.306720	 10.582500	 6.404817	 9.807288	 0.639134	 3.314623	 29.942740	-8.211631	 3.593733	 9.300358	 2.346635
